<?xml version="1.0" encoding="utf-8" ?>
<svg xmlns="http://www.w3.org/2000/svg" xmlns:ev="http://www.w3.org/2001/xml-events" xmlns:xlink="http://www.w3.org/1999/xlink" baseProfile="tiny" height="768" version="1.2" width="1024">
  <defs/>
  <text fill="#515151" font-family="Songti" font-size="16" text-anchor="start" x="272" y="26">台湾</text>
  <line fill="lightgreen" stroke="green" stroke-width="2" x1="272" x2="305" y1="30" y2="30"/>
  <circle cx="305" cy="30" fill="white" r="5" stroke="green" stroke-width="2"/>
  <text fill="#515151" font-family="Songti" font-size="16" text-anchor="start" x="537" y="56">黑龙江</text>
  <line fill="lightgreen" stroke="green" stroke-width="2" x1="537" x2="585" y1="60" y2="60"/>
  <circle cx="585" cy="60" fill="white" r="5" stroke="green" stroke-width="2"/>
  <path d="M437,60 C487.0,60 487.0,60 537,60" fill="none" stroke="yellow" stroke-width="2"/>
  <text fill="#515151" font-family="Songti" font-size="16" text-anchor="start" x="405" y="56">东北</text>
  <line fill="lightgreen" stroke="green" stroke-width="2" x1="405" x2="437" y1="60" y2="60"/>
  <circle cx="437" cy="60" fill="white" r="5" stroke="green" stroke-width="2"/>
  <text fill="#515151" font-family="Songti" font-size="16" text-anchor="start" x="405" y="86">华南</text>
  <line fill="lightgreen" stroke="green" stroke-width="2" x1="405" x2="437" y1="90" y2="90"/>
  <circle cx="437" cy="90" fill="white" r="5" stroke="green" stroke-width="2"/>
  <path d="M305,75 C355.0,75 355.0,60 405,60" fill="none" stroke="gray" stroke-width="2"/>
  <path d="M305,75 C355.0,75 355.0,90 405,90" fill="none" stroke="cyan" stroke-width="2"/>
  <text fill="#515151" font-family="Songti" font-size="16" text-anchor="start" x="272" y="71">大陆</text>
  <line fill="lightgreen" stroke="green" stroke-width="2" x1="272" x2="305" y1="75" y2="75"/>
  <circle cx="305" cy="75" fill="white" r="5" stroke="green" stroke-width="2"/>
  <text fill="#515151" font-family="Songti" font-size="16" text-anchor="start" x="272" y="116">香港</text>
  <line fill="lightgreen" stroke="green" stroke-width="2" x1="272" x2="305" y1="120" y2="120"/>
  <circle cx="305" cy="120" fill="white" r="5" stroke="green" stroke-width="2"/>
  <path d="M172,75 C222.0,75 222.0,30 272,30" fill="none" stroke="black" stroke-width="2"/>
  <path d="M172,75 C222.0,75 222.0,75 272,75" fill="none" stroke="pink" stroke-width="2"/>
  <path d="M172,75 C222.0,75 222.0,120 272,120" fill="none" stroke="magenta" stroke-width="2"/>
  <text fill="#515151" font-family="Songti" font-size="16" text-anchor="start" x="100" y="71">中国</text>
  <line fill="lightgreen" stroke="green" stroke-width="2" x1="100" x2="172" y1="75" y2="75"/>
  <circle cx="172" cy="75" fill="white" r="5" stroke="green" stroke-width="2"/>
  <text fill="#515151" font-family="Songti" font-size="16" text-anchor="start" x="100" y="146">孙列表项1</text>
  <line fill="lightgreen" stroke="green" stroke-width="2" x1="100" x2="172" y1="150" y2="150"/>
  <circle cx="172" cy="150" fill="white" r="5" stroke="green" stroke-width="2"/>
  <text fill="#515151" font-family="Songti" font-size="16" text-anchor="start" x="272" y="176">列表项1</text>
  <line fill="lightgreen" stroke="green" stroke-width="2" x1="272" x2="344" y1="180" y2="180"/>
  <circle cx="344" cy="180" fill="white" r="5" stroke="green" stroke-width="2"/>
  <text fill="#515151" font-family="Songti" font-size="16" text-anchor="start" x="272" y="206">内容段落2</text>
  <line fill="lightgreen" stroke="green" stroke-width="2" x1="272" x2="344" y1="210" y2="210"/>
  <circle cx="344" cy="210" fill="white" r="5" stroke="green" stroke-width="2"/>
  <text fill="#515151" font-family="Songti" font-size="16" text-anchor="start" x="272" y="236">内容段落1</text>
  <line fill="lightgreen" stroke="green" stroke-width="2" x1="272" x2="344" y1="240" y2="240"/>
  <circle cx="344" cy="240" fill="white" r="5" stroke="green" stroke-width="2"/>
  <text fill="#515151" font-family="Songti" font-size="16" text-anchor="start" x="272" y="266">一级标题</text>
  <line fill="lightgreen" stroke="green" stroke-width="2" x1="272" x2="344" y1="270" y2="270"/>
  <circle cx="344" cy="270" fill="white" r="5" stroke="green" stroke-width="2"/>
  <path d="M172,225 C222.0,225 222.0,180 272,180" fill="none" stroke="cyan" stroke-width="2"/>
  <path d="M172,225 C222.0,225 222.0,210 272,210" fill="none" stroke="brown" stroke-width="2"/>
  <path d="M172,225 C222.0,225 222.0,240 272,240" fill="none" stroke="pink" stroke-width="2"/>
  <path d="M172,225 C222.0,225 222.0,270 272,270" fill="none" stroke="silver" stroke-width="2"/>
  <text fill="#515151" font-family="Songti" font-size="16" text-anchor="start" x="100" y="221">Python</text>
  <line fill="lightgreen" stroke="green" stroke-width="2" x1="100" x2="172" y1="225" y2="225"/>
  <circle cx="172" cy="225" fill="white" r="5" stroke="green" stroke-width="2"/>
  <text fill="#515151" font-family="Songti" font-size="16" text-anchor="start" x="100" y="296">PHP</text>
  <line fill="lightgreen" stroke="green" stroke-width="2" x1="100" x2="172" y1="300" y2="300"/>
  <circle cx="172" cy="300" fill="white" r="5" stroke="green" stroke-width="2"/>
  <text fill="#515151" font-family="Songti" font-size="16" text-anchor="start" x="272" y="326">GNU C</text>
  <line fill="lightgreen" stroke="green" stroke-width="2" x1="272" x2="341" y1="330" y2="330"/>
  <circle cx="341" cy="330" fill="white" r="5" stroke="green" stroke-width="2"/>
  <text fill="#515151" font-family="Songti" font-size="16" text-anchor="start" x="272" y="356">Clang</text>
  <line fill="lightgreen" stroke="green" stroke-width="2" x1="272" x2="341" y1="360" y2="360"/>
  <circle cx="341" cy="360" fill="white" r="5" stroke="green" stroke-width="2"/>
  <text fill="#515151" font-family="Songti" font-size="16" text-anchor="start" x="272" y="386">C++ 语言</text>
  <line fill="lightgreen" stroke="green" stroke-width="2" x1="272" x2="341" y1="390" y2="390"/>
  <circle cx="341" cy="390" fill="white" r="5" stroke="green" stroke-width="2"/>
  <path d="M172,360 C222.0,360 222.0,330 272,330" fill="none" stroke="orange" stroke-width="2"/>
  <path d="M172,360 C222.0,360 222.0,360 272,360" fill="none" stroke="blue" stroke-width="2"/>
  <path d="M172,360 C222.0,360 222.0,390 272,390" fill="none" stroke="gray" stroke-width="2"/>
  <text fill="#515151" font-family="Songti" font-size="16" text-anchor="start" x="100" y="356">C语言</text>
  <line fill="lightgreen" stroke="green" stroke-width="2" x1="100" x2="172" y1="360" y2="360"/>
  <circle cx="172" cy="360" fill="white" r="5" stroke="green" stroke-width="2"/>
  <text fill="#515151" font-family="Songti" font-size="16" text-anchor="start" x="100" y="416">Rust</text>
  <line fill="lightgreen" stroke="green" stroke-width="2" x1="100" x2="172" y1="420" y2="420"/>
  <circle cx="172" cy="420" fill="white" r="5" stroke="green" stroke-width="2"/>
  <path d="M0,225 C50.0,225 50.0,75 100,75" fill="none" stroke="green" stroke-width="2"/>
  <path d="M0,225 C50.0,225 50.0,150 100,150" fill="none" stroke="green" stroke-width="2"/>
  <path d="M0,225 C50.0,225 50.0,225 100,225" fill="none" stroke="black" stroke-width="2"/>
  <path d="M0,225 C50.0,225 50.0,300 100,300" fill="none" stroke="silver" stroke-width="2"/>
  <path d="M0,225 C50.0,225 50.0,360 100,360" fill="none" stroke="magenta" stroke-width="2"/>
  <path d="M0,225 C50.0,225 50.0,420 100,420" fill="none" stroke="black" stroke-width="2"/>
</svg>
