<?xml version="1.0" encoding="utf-8" ?>
<svg xmlns="http://www.w3.org/2000/svg" xmlns:ev="http://www.w3.org/2001/xml-events" xmlns:xlink="http://www.w3.org/1999/xlink" baseProfile="tiny" height="600" version="1.2" width="800">
  <defs/>
  <text text-anchor="start" x="400" y="20">更多内容 1</text>
  <path d="M 300,50 H 350.0 V 20 H 400" fill="none" stroke="#FF5722" stroke-width="2"/>
  <text text-anchor="start" x="400" y="40">更多内容 1</text>
  <path d="M 300,50 H 350.0 V 40 H 400" fill="none" stroke="#FF5722" stroke-width="2"/>
  <text text-anchor="start" x="400" y="60">子列表B1</text>
  <path d="M 300,50 H 350.0 V 60 H 400" fill="none" stroke="#FF5722" stroke-width="2"/>
  <text text-anchor="start" x="220" y="20">一级标题</text>
  <path d="M 120,70 H 170.0 V 20 H 220" fill="none" stroke="#FF5722" stroke-width="2"/>
  <text text-anchor="start" x="220" y="40">AAA</text>
  <path d="M 120,70 H 170.0 V 40 H 220" fill="none" stroke="#FF5722" stroke-width="2"/>
  <text text-anchor="start" x="220" y="60">AAA</text>
  <path d="M 120,70 H 170.0 V 60 H 220" fill="none" stroke="#FF5722" stroke-width="2"/>
  <text text-anchor="start" x="580" y="20">列表A</text>
  <path d="M 480,50 H 530.0 V 20 H 580" fill="none" stroke="#FF5722" stroke-width="2"/>
  <text text-anchor="start" x="580" y="40">子列表A1</text>
  <path d="M 480,50 H 530.0 V 40 H 580" fill="none" stroke="#FF5722" stroke-width="2"/>
  <text text-anchor="start" x="580" y="60">列表B</text>
  <path d="M 480,50 H 530.0 V 60 H 580" fill="none" stroke="#FF5722" stroke-width="2"/>
  <text text-anchor="start" x="220" y="80">子列表B2</text>
  <path d="M 120,70 H 170.0 V 80 H 220" fill="none" stroke="#FF5722" stroke-width="2"/>
  <text text-anchor="start" x="220" y="100">孙列表B1-1</text>
  <path d="M 120,70 H 170.0 V 100 H 220" fill="none" stroke="#FF5722" stroke-width="2"/>
  <rect fill="lightgreen" height="40" rx="30" ry="10" stroke="green" stroke-width="2" width="120" x="0" y="35"/>
  <text text-anchor="middle" x="60" y="60">咖啡营销会议</text>
</svg>
