<?xml version="1.0" encoding="utf-8" ?>
<svg xmlns="http://www.w3.org/2000/svg" xmlns:ev="http://www.w3.org/2001/xml-events" xmlns:xlink="http://www.w3.org/1999/xlink" baseProfile="tiny" height="600" version="1.2" width="800">
  <defs/>
  <text text-anchor="start" x="300" y="20">更多内容 1</text>
  <path d="M 250,50 H 275.0 V 20 H 300" fill="none" stroke="#FF5722" stroke-width="2"/>
  <text text-anchor="start" x="300" y="40">更多内容 1</text>
  <path d="M 250,50 H 275.0 V 40 H 300" fill="none" stroke="#FF5722" stroke-width="2"/>
  <text text-anchor="start" x="300" y="60">子列表B1</text>
  <path d="M 250,50 H 275.0 V 60 H 300" fill="none" stroke="#FF5722" stroke-width="2"/>
  <text text-anchor="start" x="170" y="20">一级标题</text>
  <path d="M 120,70 H 145.0 V 20 H 170" fill="none" stroke="#FF5722" stroke-width="2"/>
  <text text-anchor="start" x="170" y="40">AAA</text>
  <path d="M 120,70 H 145.0 V 40 H 170" fill="none" stroke="#FF5722" stroke-width="2"/>
  <text text-anchor="start" x="170" y="60">AAA</text>
  <path d="M 120,70 H 145.0 V 60 H 170" fill="none" stroke="#FF5722" stroke-width="2"/>
  <text text-anchor="start" x="430" y="20">列表A</text>
  <path d="M 380,50 H 405.0 V 20 H 430" fill="none" stroke="#FF5722" stroke-width="2"/>
  <text text-anchor="start" x="430" y="40">子列表A1</text>
  <path d="M 380,50 H 405.0 V 40 H 430" fill="none" stroke="#FF5722" stroke-width="2"/>
  <text text-anchor="start" x="430" y="60">列表B</text>
  <path d="M 380,50 H 405.0 V 60 H 430" fill="none" stroke="#FF5722" stroke-width="2"/>
  <text text-anchor="start" x="170" y="80">子列表B2</text>
  <path d="M 120,70 H 145.0 V 80 H 170" fill="none" stroke="#FF5722" stroke-width="2"/>
  <text text-anchor="start" x="170" y="100">孙列表B1-1</text>
  <path d="M 120,70 H 145.0 V 100 H 170" fill="none" stroke="#FF5722" stroke-width="2"/>
  <rect fill="lightgreen" height="40" rx="30" ry="10" stroke="green" stroke-width="2" width="120" x="0" y="55"/>
  <text text-anchor="middle" x="60" y="80">咖啡营销会议</text>
</svg>
