<?xml version="1.0" encoding="utf-8" ?>
<svg xmlns="http://www.w3.org/2000/svg" xmlns:ev="http://www.w3.org/2001/xml-events" xmlns:xlink="http://www.w3.org/1999/xlink" baseProfile="tiny" height="1020" version="1.2" width="981">
  <defs/>
  <text font-family="Arial" font-size="25" text-anchor="middle" x="490.5" y="45">Operating System History</text>
  <text font-family="Arial" font-size="10" text-anchor="middle" x="490.5" y="60">Design by neo&lt;netkiller@msn.com&gt; - https://www.netkiller.cn</text>
  <path d="M621,105 C671.0,105 671.0,90 721,90" fill="none" stroke="#8c564b" stroke-width="2"/>
  <text fill="#515151" font-family="Songti" font-size="16" text-anchor="start" x="725" y="86">Rocky Linux</text>
  <line stroke="#8c564b" stroke-width="2" x1="721" x2="816" y1="90" y2="90"/>
  <circle cx="816" cy="90" fill="white" r="5" stroke="#8c564b" stroke-width="2"/>
  <path d="M621,105 C671.0,105 671.0,120 721,120" fill="none" stroke="#17becf" stroke-width="2"/>
  <text fill="#515151" font-family="Songti" font-size="16" text-anchor="start" x="725" y="116">AlmaLinux</text>
  <line stroke="#17becf" stroke-width="2" x1="721" x2="816" y1="120" y2="120"/>
  <circle cx="816" cy="120" fill="white" r="5" stroke="#17becf" stroke-width="2"/>
  <path d="M463,105 C513.0,105 513.0,105 563,105" fill="none" stroke="#2ca02c" stroke-width="2"/>
  <text fill="#515151" font-family="Songti" font-size="16" text-anchor="start" x="567" y="101">CentOS</text>
  <line stroke="#2ca02c" stroke-width="2" x1="563" x2="626" y1="105" y2="105"/>
  <circle cx="626" cy="105" fill="white" r="5" stroke="#2ca02c" stroke-width="2"/>
  <path d="M308,105 C358.0,105 358.0,105 408,105" fill="none" stroke="#7f7f7f" stroke-width="2"/>
  <text fill="#515151" font-family="Songti" font-size="16" text-anchor="start" x="412" y="101">Redhat</text>
  <line stroke="#7f7f7f" stroke-width="2" x1="408" x2="468" y1="105" y2="105"/>
  <circle cx="468" cy="105" fill="white" r="5" stroke="#7f7f7f" stroke-width="2"/>
  <path d="M475,285 C525.0,285 525.0,150 575,150" fill="none" stroke="#9467bd" stroke-width="2"/>
  <text fill="#515151" font-family="Songti" font-size="16" text-anchor="start" x="579" y="146">Yosemite</text>
  <line stroke="#9467bd" stroke-width="2" x1="575" x2="719" y1="150" y2="150"/>
  <circle cx="719" cy="150" fill="white" r="5" stroke="#9467bd" stroke-width="2"/>
  <path d="M475,285 C525.0,285 525.0,180 575,180" fill="none" stroke="#9467bd" stroke-width="2"/>
  <text fill="#515151" font-family="Songti" font-size="16" text-anchor="start" x="579" y="176">Capitan</text>
  <line stroke="#9467bd" stroke-width="2" x1="575" x2="719" y1="180" y2="180"/>
  <circle cx="719" cy="180" fill="white" r="5" stroke="#9467bd" stroke-width="2"/>
  <path d="M475,285 C525.0,285 525.0,210 575,210" fill="none" stroke="#9467bd" stroke-width="2"/>
  <text fill="#515151" font-family="Songti" font-size="16" text-anchor="start" x="579" y="206">Sierra / High Sierra</text>
  <line stroke="#9467bd" stroke-width="2" x1="575" x2="719" y1="210" y2="210"/>
  <circle cx="719" cy="210" fill="white" r="5" stroke="#9467bd" stroke-width="2"/>
  <path d="M475,285 C525.0,285 525.0,240 575,240" fill="none" stroke="#8c564b" stroke-width="2"/>
  <text fill="#515151" font-family="Songti" font-size="16" text-anchor="start" x="579" y="236">Mojave</text>
  <line stroke="#8c564b" stroke-width="2" x1="575" x2="719" y1="240" y2="240"/>
  <circle cx="719" cy="240" fill="white" r="5" stroke="#8c564b" stroke-width="2"/>
  <path d="M475,285 C525.0,285 525.0,270 575,270" fill="none" stroke="#1f77b4" stroke-width="2"/>
  <text fill="#515151" font-family="Songti" font-size="16" text-anchor="start" x="579" y="266">Catalina</text>
  <line stroke="#1f77b4" stroke-width="2" x1="575" x2="719" y1="270" y2="270"/>
  <circle cx="719" cy="270" fill="white" r="5" stroke="#1f77b4" stroke-width="2"/>
  <path d="M475,285 C525.0,285 525.0,300 575,300" fill="none" stroke="#17becf" stroke-width="2"/>
  <text fill="#515151" font-family="Songti" font-size="16" text-anchor="start" x="579" y="296">Big Sur</text>
  <line stroke="#17becf" stroke-width="2" x1="575" x2="719" y1="300" y2="300"/>
  <circle cx="719" cy="300" fill="white" r="5" stroke="#17becf" stroke-width="2"/>
  <path d="M475,285 C525.0,285 525.0,330 575,330" fill="none" stroke="#8c564b" stroke-width="2"/>
  <text fill="#515151" font-family="Songti" font-size="16" text-anchor="start" x="579" y="326">Monterry</text>
  <line stroke="#8c564b" stroke-width="2" x1="575" x2="719" y1="330" y2="330"/>
  <circle cx="719" cy="330" fill="white" r="5" stroke="#8c564b" stroke-width="2"/>
  <path d="M475,285 C525.0,285 525.0,360 575,360" fill="none" stroke="#bcbd22" stroke-width="2"/>
  <text fill="#515151" font-family="Songti" font-size="16" text-anchor="start" x="579" y="356">Ventura</text>
  <line stroke="#bcbd22" stroke-width="2" x1="575" x2="719" y1="360" y2="360"/>
  <circle cx="719" cy="360" fill="white" r="5" stroke="#bcbd22" stroke-width="2"/>
  <path d="M475,285 C525.0,285 525.0,390 575,390" fill="none" stroke="#9467bd" stroke-width="2"/>
  <text fill="#515151" font-family="Songti" font-size="16" text-anchor="start" x="579" y="386">Sonoma</text>
  <line stroke="#9467bd" stroke-width="2" x1="575" x2="719" y1="390" y2="390"/>
  <circle cx="719" cy="390" fill="white" r="5" stroke="#9467bd" stroke-width="2"/>
  <path d="M475,285 C525.0,285 525.0,420 575,420" fill="none" stroke="#2ca02c" stroke-width="2"/>
  <text fill="#515151" font-family="Songti" font-size="16" text-anchor="start" x="579" y="416">Sequoia</text>
  <line stroke="#2ca02c" stroke-width="2" x1="575" x2="719" y1="420" y2="420"/>
  <circle cx="719" cy="420" fill="white" r="5" stroke="#2ca02c" stroke-width="2"/>
  <path d="M308,345 C358.0,345 358.0,285 408,285" fill="none" stroke="#17becf" stroke-width="2"/>
  <text fill="#515151" font-family="Songti" font-size="16" text-anchor="start" x="412" y="281">macOS</text>
  <line stroke="#17becf" stroke-width="2" x1="408" x2="480" y1="285" y2="285"/>
  <circle cx="480" cy="285" fill="white" r="5" stroke="#17becf" stroke-width="2"/>
  <path d="M308,345 C358.0,345 358.0,450 408,450" fill="none" stroke="#ff7f0e" stroke-width="2"/>
  <text fill="#515151" font-family="Songti" font-size="16" text-anchor="start" x="412" y="446">iPadSO</text>
  <line stroke="#ff7f0e" stroke-width="2" x1="408" x2="480" y1="450" y2="450"/>
  <circle cx="480" cy="450" fill="white" r="5" stroke="#ff7f0e" stroke-width="2"/>
  <path d="M308,345 C358.0,345 358.0,480 408,480" fill="none" stroke="#17becf" stroke-width="2"/>
  <text fill="#515151" font-family="Songti" font-size="16" text-anchor="start" x="412" y="476">tvOS</text>
  <line stroke="#17becf" stroke-width="2" x1="408" x2="480" y1="480" y2="480"/>
  <circle cx="480" cy="480" fill="white" r="5" stroke="#17becf" stroke-width="2"/>
  <path d="M308,345 C358.0,345 358.0,510 408,510" fill="none" stroke="#8c564b" stroke-width="2"/>
  <text fill="#515151" font-family="Songti" font-size="16" text-anchor="start" x="412" y="506">iOS</text>
  <line stroke="#8c564b" stroke-width="2" x1="408" x2="480" y1="510" y2="510"/>
  <circle cx="480" cy="510" fill="white" r="5" stroke="#8c564b" stroke-width="2"/>
  <path d="M308,345 C358.0,345 358.0,540 408,540" fill="none" stroke="#8c564b" stroke-width="2"/>
  <text fill="#515151" font-family="Songti" font-size="16" text-anchor="start" x="412" y="536">watchOS</text>
  <line stroke="#8c564b" stroke-width="2" x1="408" x2="480" y1="540" y2="540"/>
  <circle cx="480" cy="540" fill="white" r="5" stroke="#8c564b" stroke-width="2"/>
  <path d="M474,750 C524.0,750 524.0,720 574,720" fill="none" stroke="#9467bd" stroke-width="2"/>
  <text fill="#515151" font-family="Songti" font-size="16" text-anchor="start" x="578" y="716">FreeBSD</text>
  <line stroke="#9467bd" stroke-width="2" x1="574" x2="654" y1="720" y2="720"/>
  <circle cx="654" cy="720" fill="white" r="5" stroke="#9467bd" stroke-width="2"/>
  <path d="M474,750 C524.0,750 524.0,750 574,750" fill="none" stroke="#d62728" stroke-width="2"/>
  <text fill="#515151" font-family="Songti" font-size="16" text-anchor="start" x="578" y="746">NetBSD</text>
  <line stroke="#d62728" stroke-width="2" x1="574" x2="654" y1="750" y2="750"/>
  <circle cx="654" cy="750" fill="white" r="5" stroke="#d62728" stroke-width="2"/>
  <path d="M474,750 C524.0,750 524.0,780 574,780" fill="none" stroke="#e377c2" stroke-width="2"/>
  <text fill="#515151" font-family="Songti" font-size="16" text-anchor="start" x="578" y="776">OpenBSD</text>
  <line stroke="#e377c2" stroke-width="2" x1="574" x2="654" y1="780" y2="780"/>
  <circle cx="654" cy="780" fill="white" r="5" stroke="#e377c2" stroke-width="2"/>
  <path d="M308,675 C358.0,675 358.0,570 408,570" fill="none" stroke="#1f77b4" stroke-width="2"/>
  <text fill="#515151" font-family="Songti" font-size="16" text-anchor="start" x="412" y="566">Solaris</text>
  <line stroke="#1f77b4" stroke-width="2" x1="408" x2="479" y1="570" y2="570"/>
  <circle cx="479" cy="570" fill="white" r="5" stroke="#1f77b4" stroke-width="2"/>
  <path d="M308,675 C358.0,675 358.0,600 408,600" fill="none" stroke="#ff7f0e" stroke-width="2"/>
  <text fill="#515151" font-family="Songti" font-size="16" text-anchor="start" x="412" y="596">Aix</text>
  <line stroke="#ff7f0e" stroke-width="2" x1="408" x2="479" y1="600" y2="600"/>
  <circle cx="479" cy="600" fill="white" r="5" stroke="#ff7f0e" stroke-width="2"/>
  <path d="M308,675 C358.0,675 358.0,630 408,630" fill="none" stroke="#1f77b4" stroke-width="2"/>
  <text fill="#515151" font-family="Songti" font-size="16" text-anchor="start" x="412" y="626">Hp-Ux</text>
  <line stroke="#1f77b4" stroke-width="2" x1="408" x2="479" y1="630" y2="630"/>
  <circle cx="479" cy="630" fill="white" r="5" stroke="#1f77b4" stroke-width="2"/>
  <path d="M308,675 C358.0,675 358.0,660 408,660" fill="none" stroke="#17becf" stroke-width="2"/>
  <text fill="#515151" font-family="Songti" font-size="16" text-anchor="start" x="412" y="656">Sco Unix</text>
  <line stroke="#17becf" stroke-width="2" x1="408" x2="479" y1="660" y2="660"/>
  <circle cx="479" cy="660" fill="white" r="5" stroke="#17becf" stroke-width="2"/>
  <path d="M308,675 C358.0,675 358.0,690 408,690" fill="none" stroke="#17becf" stroke-width="2"/>
  <text fill="#515151" font-family="Songti" font-size="16" text-anchor="start" x="412" y="686">Irix</text>
  <line stroke="#17becf" stroke-width="2" x1="408" x2="479" y1="690" y2="690"/>
  <circle cx="479" cy="690" fill="white" r="5" stroke="#17becf" stroke-width="2"/>
  <path d="M308,675 C358.0,675 358.0,750 408,750" fill="none" stroke="#2ca02c" stroke-width="2"/>
  <text fill="#515151" font-family="Songti" font-size="16" text-anchor="start" x="412" y="746">BSD</text>
  <line stroke="#2ca02c" stroke-width="2" x1="408" x2="479" y1="750" y2="750"/>
  <circle cx="479" cy="750" fill="white" r="5" stroke="#2ca02c" stroke-width="2"/>
  <path d="M308,900 C358.0,900 358.0,810 408,810" fill="none" stroke="#bcbd22" stroke-width="2"/>
  <text fill="#515151" font-family="Songti" font-size="16" text-anchor="start" x="412" y="806">MsDos 6.22</text>
  <line stroke="#bcbd22" stroke-width="2" x1="408" x2="545" y1="810" y2="810"/>
  <circle cx="545" cy="810" fill="white" r="5" stroke="#bcbd22" stroke-width="2"/>
  <path d="M308,900 C358.0,900 358.0,840 408,840" fill="none" stroke="#bcbd22" stroke-width="2"/>
  <text fill="#515151" font-family="Songti" font-size="16" text-anchor="start" x="412" y="836">Win3.2</text>
  <line stroke="#bcbd22" stroke-width="2" x1="408" x2="545" y1="840" y2="840"/>
  <circle cx="545" cy="840" fill="white" r="5" stroke="#bcbd22" stroke-width="2"/>
  <path d="M308,900 C358.0,900 358.0,870 408,870" fill="none" stroke="#7f7f7f" stroke-width="2"/>
  <text fill="#515151" font-family="Songti" font-size="16" text-anchor="start" x="412" y="866">Win 95 / 98 / 2000</text>
  <line stroke="#7f7f7f" stroke-width="2" x1="408" x2="545" y1="870" y2="870"/>
  <circle cx="545" cy="870" fill="white" r="5" stroke="#7f7f7f" stroke-width="2"/>
  <path d="M308,900 C358.0,900 358.0,900 408,900" fill="none" stroke="#2ca02c" stroke-width="2"/>
  <text fill="#515151" font-family="Songti" font-size="16" text-anchor="start" x="412" y="896">Windows 2000</text>
  <line stroke="#2ca02c" stroke-width="2" x1="408" x2="545" y1="900" y2="900"/>
  <circle cx="545" cy="900" fill="white" r="5" stroke="#2ca02c" stroke-width="2"/>
  <path d="M308,900 C358.0,900 358.0,930 408,930" fill="none" stroke="#d62728" stroke-width="2"/>
  <text fill="#515151" font-family="Songti" font-size="16" text-anchor="start" x="412" y="926">Windows Vista</text>
  <line stroke="#d62728" stroke-width="2" x1="408" x2="545" y1="930" y2="930"/>
  <circle cx="545" cy="930" fill="white" r="5" stroke="#d62728" stroke-width="2"/>
  <path d="M308,900 C358.0,900 358.0,960 408,960" fill="none" stroke="#7f7f7f" stroke-width="2"/>
  <text fill="#515151" font-family="Songti" font-size="16" text-anchor="start" x="412" y="956">Windows 10/11</text>
  <line stroke="#7f7f7f" stroke-width="2" x1="408" x2="545" y1="960" y2="960"/>
  <circle cx="545" cy="960" fill="white" r="5" stroke="#7f7f7f" stroke-width="2"/>
  <path d="M308,900 C358.0,900 358.0,990 408,990" fill="none" stroke="#9467bd" stroke-width="2"/>
  <text fill="#515151" font-family="Songti" font-size="16" text-anchor="start" x="412" y="986">Windows NT</text>
  <line stroke="#9467bd" stroke-width="2" x1="408" x2="545" y1="990" y2="990"/>
  <circle cx="545" cy="990" fill="white" r="5" stroke="#9467bd" stroke-width="2"/>
  <path d="M135,540 C185.0,540 185.0,105 235,105" fill="none" stroke="#7f7f7f" stroke-width="2"/>
  <text fill="#515151" font-family="Songti" font-size="16" text-anchor="start" x="239" y="101">Linux</text>
  <line stroke="#7f7f7f" stroke-width="2" x1="235" x2="313" y1="105" y2="105"/>
  <circle cx="313" cy="105" fill="white" r="5" stroke="#7f7f7f" stroke-width="2"/>
  <path d="M135,540 C185.0,540 185.0,345 235,345" fill="none" stroke="#17becf" stroke-width="2"/>
  <text fill="#515151" font-family="Songti" font-size="16" text-anchor="start" x="239" y="341">Apple OS</text>
  <line stroke="#17becf" stroke-width="2" x1="235" x2="313" y1="345" y2="345"/>
  <circle cx="313" cy="345" fill="white" r="5" stroke="#17becf" stroke-width="2"/>
  <path d="M135,540 C185.0,540 185.0,675 235,675" fill="none" stroke="#8c564b" stroke-width="2"/>
  <text fill="#515151" font-family="Songti" font-size="16" text-anchor="start" x="239" y="671">Unix</text>
  <line stroke="#8c564b" stroke-width="2" x1="235" x2="313" y1="675" y2="675"/>
  <circle cx="313" cy="675" fill="white" r="5" stroke="#8c564b" stroke-width="2"/>
  <path d="M135,540 C185.0,540 185.0,900 235,900" fill="none" stroke="#d62728" stroke-width="2"/>
  <text fill="#515151" font-family="Songti" font-size="16" text-anchor="start" x="239" y="896">Microsoft</text>
  <line stroke="#d62728" stroke-width="2" x1="235" x2="313" y1="900" y2="900"/>
  <circle cx="313" cy="900" fill="white" r="5" stroke="#d62728" stroke-width="2"/>
  <line stroke="#8c564b" stroke-width="3" x1="2" x2="135" y1="540" y2="540"/>
  <circle cx="135" cy="540" fill="white" r="3" stroke="#8c564b" stroke-width="2"/>
  <text fill="#515151" font-family="Songti" font-size="16" text-anchor="middle" x="67" y="535">Operating System</text>
</svg>
