<?xml version="1.0" encoding="utf-8" ?>
<svg xmlns="http://www.w3.org/2000/svg" xmlns:ev="http://www.w3.org/2001/xml-events" xmlns:xlink="http://www.w3.org/1999/xlink" baseProfile="tiny" height="768" version="1.2" width="1024">
  <defs/>
  <path d="M580,90 C630.0,90 630.0,60 680,60" fill="none" stroke="pink" stroke-width="2"/>
  <text fill="#515151" font-family="Songti" font-size="16" text-anchor="start" x="680" y="56">黑龙江</text>
  <line stroke="pink" stroke-width="2" x1="680" x2="738" y1="60" y2="60"/>
  <circle cx="738" cy="60" fill="white" r="5" stroke="pink" stroke-width="2"/>
  <path d="M580,90 C630.0,90 630.0,90 680,90" fill="none" stroke="purple" stroke-width="2"/>
  <text fill="#515151" font-family="Songti" font-size="16" text-anchor="start" x="680" y="86">吉林</text>
  <line stroke="purple" stroke-width="2" x1="680" x2="738" y1="90" y2="90"/>
  <circle cx="738" cy="90" fill="white" r="5" stroke="purple" stroke-width="2"/>
  <path d="M580,90 C630.0,90 630.0,120 680,120" fill="none" stroke="magenta" stroke-width="2"/>
  <text fill="#515151" font-family="Songti" font-size="16" text-anchor="start" x="680" y="116">辽宁</text>
  <line stroke="magenta" stroke-width="2" x1="680" x2="738" y1="120" y2="120"/>
  <circle cx="738" cy="120" fill="white" r="5" stroke="magenta" stroke-width="2"/>
  <path d="M443,105 C493.0,105 493.0,90 543,90" fill="none" stroke="#005588" stroke-width="2"/>
  <text fill="#515151" font-family="Songti" font-size="16" text-anchor="start" x="543" y="86">东北</text>
  <line stroke="#005588" stroke-width="2" x1="543" x2="585" y1="90" y2="90"/>
  <circle cx="585" cy="90" fill="white" r="5" stroke="#005588" stroke-width="2"/>
  <path d="M443,105 C493.0,105 493.0,150 543,150" fill="none" stroke="black" stroke-width="2"/>
  <text fill="#515151" font-family="Songti" font-size="16" text-anchor="start" x="543" y="146">华南</text>
  <line stroke="black" stroke-width="2" x1="543" x2="585" y1="150" y2="150"/>
  <circle cx="585" cy="150" fill="white" r="5" stroke="black" stroke-width="2"/>
  <path d="M305,105 C355.0,105 355.0,30 405,30" fill="none" stroke="gold" stroke-width="2"/>
  <text fill="#515151" font-family="Songti" font-size="16" text-anchor="start" x="405" y="26">台湾</text>
  <line stroke="gold" stroke-width="2" x1="405" x2="448" y1="30" y2="30"/>
  <circle cx="448" cy="30" fill="white" r="5" stroke="gold" stroke-width="2"/>
  <path d="M305,105 C355.0,105 355.0,105 405,105" fill="none" stroke="red" stroke-width="2"/>
  <text fill="#515151" font-family="Songti" font-size="16" text-anchor="start" x="405" y="101">大陆</text>
  <line stroke="red" stroke-width="2" x1="405" x2="448" y1="105" y2="105"/>
  <circle cx="448" cy="105" fill="white" r="5" stroke="red" stroke-width="2"/>
  <path d="M305,105 C355.0,105 355.0,180 405,180" fill="none" stroke="orange" stroke-width="2"/>
  <text fill="#515151" font-family="Songti" font-size="16" text-anchor="start" x="405" y="176">香港</text>
  <line stroke="orange" stroke-width="2" x1="405" x2="448" y1="180" y2="180"/>
  <circle cx="448" cy="180" fill="white" r="5" stroke="orange" stroke-width="2"/>
  <path d="M305,285 C355.0,285 355.0,240 405,240" fill="none" stroke="#005588" stroke-width="2"/>
  <text fill="#515151" font-family="Songti" font-size="16" text-anchor="start" x="405" y="236">列表项1</text>
  <line stroke="#005588" stroke-width="2" x1="405" x2="487" y1="240" y2="240"/>
  <circle cx="487" cy="240" fill="white" r="5" stroke="#005588" stroke-width="2"/>
  <path d="M305,285 C355.0,285 355.0,270 405,270" fill="none" stroke="orange" stroke-width="2"/>
  <text fill="#515151" font-family="Songti" font-size="16" text-anchor="start" x="405" y="266">内容段落2</text>
  <line stroke="orange" stroke-width="2" x1="405" x2="487" y1="270" y2="270"/>
  <circle cx="487" cy="270" fill="white" r="5" stroke="orange" stroke-width="2"/>
  <path d="M305,285 C355.0,285 355.0,300 405,300" fill="none" stroke="cyan" stroke-width="2"/>
  <text fill="#515151" font-family="Songti" font-size="16" text-anchor="start" x="405" y="296">内容段落1</text>
  <line stroke="cyan" stroke-width="2" x1="405" x2="487" y1="300" y2="300"/>
  <circle cx="487" cy="300" fill="white" r="5" stroke="cyan" stroke-width="2"/>
  <path d="M305,285 C355.0,285 355.0,330 405,330" fill="none" stroke="brown" stroke-width="2"/>
  <text fill="#515151" font-family="Songti" font-size="16" text-anchor="start" x="405" y="326">一级标题</text>
  <line stroke="brown" stroke-width="2" x1="405" x2="487" y1="330" y2="330"/>
  <circle cx="487" cy="330" fill="white" r="5" stroke="brown" stroke-width="2"/>
  <path d="M305,420 C355.0,420 355.0,390 405,390" fill="none" stroke="red" stroke-width="2"/>
  <text fill="#515151" font-family="Songti" font-size="16" text-anchor="start" x="405" y="386">GNU C</text>
  <line stroke="red" stroke-width="2" x1="405" x2="484" y1="390" y2="390"/>
  <circle cx="484" cy="390" fill="white" r="5" stroke="red" stroke-width="2"/>
  <path d="M305,420 C355.0,420 355.0,420 405,420" fill="none" stroke="orange" stroke-width="2"/>
  <text fill="#515151" font-family="Songti" font-size="16" text-anchor="start" x="405" y="416">Clang</text>
  <line stroke="orange" stroke-width="2" x1="405" x2="484" y1="420" y2="420"/>
  <circle cx="484" cy="420" fill="white" r="5" stroke="orange" stroke-width="2"/>
  <path d="M305,420 C355.0,420 355.0,450 405,450" fill="none" stroke="red" stroke-width="2"/>
  <text fill="#515151" font-family="Songti" font-size="16" text-anchor="start" x="405" y="446">C++ 语言</text>
  <line stroke="red" stroke-width="2" x1="405" x2="484" y1="450" y2="450"/>
  <circle cx="484" cy="450" fill="white" r="5" stroke="red" stroke-width="2"/>
  <path d="M128,255 C178.0,255 178.0,105 228,105" fill="none" stroke="black" stroke-width="2"/>
  <text fill="#515151" font-family="Songti" font-size="16" text-anchor="start" x="228" y="101">中国</text>
  <line stroke="black" stroke-width="2" x1="228" x2="310" y1="105" y2="105"/>
  <circle cx="310" cy="105" fill="white" r="5" stroke="black" stroke-width="2"/>
  <path d="M128,255 C178.0,255 178.0,210 228,210" fill="none" stroke="pink" stroke-width="2"/>
  <text fill="#515151" font-family="Songti" font-size="16" text-anchor="start" x="228" y="206">孙列表项1</text>
  <line stroke="pink" stroke-width="2" x1="228" x2="310" y1="210" y2="210"/>
  <circle cx="310" cy="210" fill="white" r="5" stroke="pink" stroke-width="2"/>
  <path d="M128,255 C178.0,255 178.0,285 228,285" fill="none" stroke="orange" stroke-width="2"/>
  <text fill="#515151" font-family="Songti" font-size="16" text-anchor="start" x="228" y="281">Python</text>
  <line stroke="orange" stroke-width="2" x1="228" x2="310" y1="285" y2="285"/>
  <circle cx="310" cy="285" fill="white" r="5" stroke="orange" stroke-width="2"/>
  <path d="M128,255 C178.0,255 178.0,360 228,360" fill="none" stroke="gold" stroke-width="2"/>
  <text fill="#515151" font-family="Songti" font-size="16" text-anchor="start" x="228" y="356">PHP</text>
  <line stroke="gold" stroke-width="2" x1="228" x2="310" y1="360" y2="360"/>
  <circle cx="310" cy="360" fill="white" r="5" stroke="gold" stroke-width="2"/>
  <path d="M128,255 C178.0,255 178.0,420 228,420" fill="none" stroke="purple" stroke-width="2"/>
  <text fill="#515151" font-family="Songti" font-size="16" text-anchor="start" x="228" y="416">C语言</text>
  <line stroke="purple" stroke-width="2" x1="228" x2="310" y1="420" y2="420"/>
  <circle cx="310" cy="420" fill="white" r="5" stroke="purple" stroke-width="2"/>
  <path d="M128,255 C178.0,255 178.0,480 228,480" fill="none" stroke="black" stroke-width="2"/>
  <text fill="#515151" font-family="Songti" font-size="16" text-anchor="start" x="228" y="476">Rust</text>
  <line stroke="black" stroke-width="2" x1="228" x2="310" y1="480" y2="480"/>
  <circle cx="310" cy="480" fill="white" r="5" stroke="black" stroke-width="2"/>
  <line fill="lightgreen" stroke="orange" stroke-width="4" x1="2" x2="128" y1="255" y2="255"/>
  <circle cx="128" cy="255" fill="white" r="4" stroke="orange" stroke-width="2"/>
  <text fill="#515151" font-family="Songti" font-size="16" text-anchor="middle" x="64" y="250">计算机语言语言</text>
</svg>
