<svg width="621" height="508" xmlns="http://www.w3.org/2000/svg" xmlns:xlink="http://www.w3.org/1999/xlink">
<style type="text/css"><![CDATA[
* {
                  font-family: 'PingFang SC', 'Microsoft YaHei', 'SimHei', 'Arial', sans-serif, 'SourceHanSansSC-Normal';
                  /* font-size: 16px;*/
                }
]]></style>
<g id="tasks">
	<g id="task">
	<g id="item">
	<polyline points="1,95 310,95 310,112 300,103 11,103 1,112 1,95" stroke="none" fill="#333333" />
</g>
</g>
	<g id="task">
	<g id="item">
	<rect x="63" y="123" width="61" height="20" stroke="grey" fill="#00C7C1" />
</g>
</g>
	<g id="task">
	<g id="item">
	<rect x="125" y="153" width="92" height="20" stroke="grey" fill="#00C7C1" />
</g>
</g>
	<g id="task">
	<g id="item">
	<rect x="218" y="183" width="92" height="20" stroke="grey" fill="#00C7C1" />
</g>
</g>
	<g id="task">
	<g id="item">
	<rect x="218" y="213" width="92" height="20" stroke="grey" fill="#00C7C1" />
	<rect x="220" y="216" width="58" height="14" fill="#B2F2EA" />
	<text x="223" y="226" font-size="10" text-anchor="start" fill="black" font-family="SourceHanSansSC-Normal">66%</text>
</g>
</g>
	<g id="task">
	<g id="item">
	<path d="M 47,242 L 58,253 L 47,264 L 36,253 L 47,242 Z" fill="#333333" />
	<text x="62" y="258" font-size="16" text-anchor="start" fill="#333333">2023年03月02日</text>
</g>
</g>
	<g id="task">
	<g id="item">
	<rect x="311" y="273" width="309" height="20" stroke="grey" fill="#00C7C1" />
	<rect x="313" y="276" width="58" height="14" fill="#B2F2EA" />
	<text x="316" y="286" font-size="10" text-anchor="start" fill="black" font-family="SourceHanSansSC-Normal">20%</text>
</g>
</g>
	<g id="task">
	<g id="item">
	<path d="M 295,302 L 306,313 L 295,324 L 284,313 L 295,302 Z" fill="#333333" />
	<text x="310" y="318" font-size="16" text-anchor="start" fill="#333333">2023年03月10日</text>
</g>
</g>
	<g id="task">
	<g id="item">
	<polyline points="280,335 589,335 589,352 579,343 290,343 280,352 280,335" stroke="none" fill="#333333" />
</g>
</g>
	<g id="task">
	<g id="item">
	<rect x="280" y="363" width="61" height="20" stroke="grey" fill="#00C7C1" />
</g>
</g>
	<g id="task">
	<g id="item">
	<rect x="342" y="393" width="92" height="20" stroke="grey" fill="#00C7C1" />
</g>
</g>
	<g id="task">
	<g id="item">
	<rect x="435" y="423" width="154" height="20" stroke="grey" fill="#00C7C1" />
</g>
</g>
	<g id="task">
	<g id="item">
	<rect x="435" y="453" width="154" height="20" stroke="grey" fill="#00C7C1" />
</g>
</g>
</g>
<g id="handover">
	<g id="link">
	<path d="M 125,133 H 140 H 143" stroke-width="2" marker-end="arrow" stroke="black" fill="none" />
</g>
	<g id="link">
	<path d="M 218,163 H 233 H 173" stroke-width="2" marker-end="arrow" stroke="black" fill="none" />
</g>
	<g id="link">
	<path d="M 218,163 H 233 H 203" stroke-width="2" marker-end="arrow" stroke="black" fill="none" />
</g>
	<g id="link">
	<path d="M 311,223 H 295 H 353" stroke-width="2" marker-end="arrow" stroke="black" fill="none" />
</g>
	<g id="link">
	<path d="M 342,373 H 357 H 383" stroke-width="2" marker-end="arrow" stroke="black" fill="none" />
</g>
	<g id="link">
	<path d="M 435,403 H 450 H 413" stroke-width="2" marker-end="arrow" stroke="black" fill="none" />
</g>
</g>
</svg>