<svg width="621" height="87" xmlns="http://www.w3.org/2000/svg" xmlns:xlink="http://www.w3.org/1999/xlink">
<style type="text/css"><![CDATA[
* {
          font-family: 'PingFang SC', 'Microsoft YaHei', 'SimHei', 'Arial', sans-serif, 'SourceHanSansSC-Normal';
          /* font-size: 16px;*/
        }
]]></style>
<g id="header">
	<g id="year2023">
	<g id="month3">
	<g id="week09">
	<text x="5" y="20" font-size="20" fill="#555555">2023年03月</text>
	<text x="5" y="51" font-size="20" fill="#555555">三</text>
	<rect x="1" y="59" width="30" height="30" fill="#cccccc" >
	<title>1</title>
</rect>
	<text x="11" y="81" font-size="20" fill="#555555">1</text>
	<text x="36" y="51" font-size="20" fill="#555555">四</text>
	<rect x="32" y="59" width="30" height="30" fill="#cccccc" >
	<title>2</title>
</rect>
	<text x="42" y="81" font-size="20" fill="#555555">2</text>
	<text x="67" y="51" font-size="20" fill="#555555">五</text>
	<rect x="63" y="59" width="30" height="30" fill="#cccccc" >
	<title>3</title>
</rect>
	<text x="73" y="81" font-size="20" fill="#555555">3</text>
	<text x="98" y="51" font-size="20" fill="#555555">六</text>
	<rect x="94" y="59" width="30" height="30" fill="#dddddd" >
	<title>4</title>
</rect>
	<text x="104" y="81" font-size="20" fill="#555555">4</text>
	<text x="129" y="51" font-size="20" fill="#555555">日</text>
	<rect x="125" y="59" width="30" height="30" fill="#dddddd" >
	<title>5</title>
</rect>
	<line x1="155" y1="30" x2="155" y2="88" stroke="black" />
	<text x="135" y="81" font-size="20" fill="#555555">5</text>
</g>
	<g id="week10">
	<text x="160" y="51" font-size="20" fill="#555555">一</text>
	<rect x="156" y="59" width="30" height="30" fill="#cccccc" >
	<title>6</title>
</rect>
	<text x="166" y="81" font-size="20" fill="#555555">6</text>
	<text x="191" y="51" font-size="20" fill="#555555">二</text>
	<rect x="187" y="59" width="30" height="30" fill="#cccccc" >
	<title>7</title>
</rect>
	<text x="197" y="81" font-size="20" fill="#555555">7</text>
	<text x="222" y="51" font-size="20" fill="#555555">三</text>
	<rect x="218" y="59" width="30" height="30" fill="#cccccc" >
	<title>8</title>
</rect>
	<text x="228" y="81" font-size="20" fill="#555555">8</text>
	<text x="253" y="51" font-size="20" fill="#555555">四</text>
	<rect x="249" y="59" width="30" height="30" fill="#cccccc" >
	<title>9</title>
</rect>
	<text x="259" y="81" font-size="20" fill="#555555">9</text>
	<text x="284" y="51" font-size="20" fill="#555555">五</text>
	<rect x="280" y="59" width="30" height="30" fill="#cccccc" >
	<title>10</title>
</rect>
	<text x="285" y="81" font-size="20" fill="#555555">10</text>
	<text x="315" y="51" font-size="20" fill="#555555">六</text>
	<rect x="311" y="59" width="30" height="30" fill="#dddddd" >
	<title>11</title>
</rect>
	<text x="316" y="81" font-size="20" fill="#555555">11</text>
	<text x="346" y="51" font-size="20" fill="#555555">日</text>
	<rect x="342" y="59" width="30" height="30" fill="#dddddd" >
	<title>12</title>
</rect>
	<line x1="372" y1="30" x2="372" y2="88" stroke="black" />
	<text x="347" y="81" font-size="20" fill="#555555">12</text>
</g>
	<g id="week11">
	<text x="377" y="51" font-size="20" fill="#555555">一</text>
	<rect x="373" y="59" width="30" height="30" fill="#cccccc" >
	<title>13</title>
</rect>
	<text x="378" y="81" font-size="20" fill="#555555">13</text>
	<text x="408" y="51" font-size="20" fill="#555555">二</text>
	<rect x="404" y="59" width="30" height="30" fill="#cccccc" >
	<title>14</title>
</rect>
	<text x="409" y="81" font-size="20" fill="#555555">14</text>
	<text x="439" y="51" font-size="20" fill="#555555">三</text>
	<rect x="435" y="59" width="30" height="30" fill="#cccccc" >
	<title>15</title>
</rect>
	<text x="440" y="81" font-size="20" fill="#555555">15</text>
	<text x="470" y="51" font-size="20" fill="#555555">四</text>
	<rect x="466" y="59" width="30" height="30" fill="#cccccc" >
	<title>16</title>
</rect>
	<text x="471" y="81" font-size="20" fill="#555555">16</text>
	<text x="501" y="51" font-size="20" fill="#555555">五</text>
	<rect x="497" y="59" width="30" height="30" fill="#cccccc" >
	<title>17</title>
</rect>
	<text x="502" y="81" font-size="20" fill="#555555">17</text>
	<text x="532" y="51" font-size="20" fill="#555555">六</text>
	<rect x="528" y="59" width="30" height="30" fill="#dddddd" >
	<title>18</title>
</rect>
	<text x="533" y="81" font-size="20" fill="#555555">18</text>
	<text x="563" y="51" font-size="20" fill="#555555">日</text>
	<rect x="559" y="59" width="30" height="30" fill="#dddddd" >
	<title>19</title>
</rect>
	<line x1="589" y1="30" x2="589" y2="88" stroke="black" />
	<text x="564" y="81" font-size="20" fill="#555555">19</text>
</g>
	<g id="week12">
	<text x="594" y="51" font-size="20" fill="#555555">一</text>
	<rect x="590" y="59" width="30" height="30" fill="#cccccc" >
	<title>20</title>
</rect>
	<text x="595" y="81" font-size="20" fill="#555555">20</text>
</g>
</g>
</g>
	<line x1="1" y1="30" x2="619" y2="30" stroke="grey" />
	<line x1="1" y1="59" x2="619" y2="59" stroke="grey" />
	<rect x="1" y="1" width="619" height="88" stroke="black" fill="none" />
</g>
</svg>